<mxfile host="app.diagrams.net" modified="2025-08-27T03:45:54.6253859Z" agent="drawiomvc" version="24.7.0" type="device"><diagram id="57632739c19342e2aeca46f70cd946d6" name="Page-1"><mxGraphModel dx="1000" dy="600" grid="1" gridSize="10" guides="1" tooltips="1" connect="1" arrows="1" fold="1" page="1" pageScale="1" pageWidth="850" pageHeight="1100" math="0" shadow="0"><root><mxCell id="0"/><mxCell id="1" parent="0"/></root></mxGraphModel></diagram></mxfile>